<svg width="238" height="149" viewBox="0 0 238 149" fill="none" xmlns="http://www.w3.org/2000/svg">
<circle cx="27.5" cy="56.5" r="27.5" fill="#EB8396"/>
<rect x="26" y="29" width="56" height="55" fill="#EB8396"/>
<ellipse cx="26.8452" cy="28" rx="26.8452" ry="28" transform="matrix(-1 0 0 1 83 64)" fill="#D25B5B"/>
<rect width="54.6667" height="56" transform="matrix(-1 0 0 1 55.6667 64)" fill="#D25B5B"/>
<path d="M58.2063 64H1C5.05 77.2 18.2125 82.8333 24.2875 84H82C77.14 68.8 64.1125 64.3333 58.2063 64Z" fill="#FF9797"/>
<path d="M152.953 59.9062L150.188 61.7344C148.5 59.2344 146.297 57.2656 143.578 55.8281C140.891 54.3594 137.969 53.625 134.812 53.625C129.688 53.625 125.312 55.4375 121.688 59.0625C118.062 62.6875 116.25 67.0625 116.25 72.1875C116.25 77.3125 118.062 81.6875 121.688 85.3125C125.312 88.9375 129.688 90.75 134.812 90.75C137.969 90.75 140.891 90.0156 143.578 88.5469C146.297 87.0781 148.5 85.0938 150.188 82.5938L152.906 84.5625C150.906 87.5 148.312 89.8281 145.125 91.5469C141.938 93.2656 138.5 94.125 134.812 94.125C131.844 94.125 129 93.5469 126.281 92.3906C123.594 91.2344 121.266 89.6719 119.297 87.7031C117.328 85.7344 115.766 83.4062 114.609 80.7188C113.453 78 112.875 75.1562 112.875 72.1875C112.875 69.2188 113.453 66.3906 114.609 63.7031C115.766 60.9844 117.328 58.6406 119.297 56.6719C121.266 54.7031 123.594 53.1406 126.281 51.9844C129 50.8281 131.844 50.25 134.812 50.25C138.531 50.25 141.984 51.125 145.172 52.875C148.359 54.5938 150.953 56.9375 152.953 59.9062ZM158.531 56.0625L155.719 57.8906C153.406 54.5156 150.406 51.8438 146.719 49.875C143.062 47.875 139.094 46.875 134.812 46.875C130.219 46.875 125.984 48.0156 122.109 50.2969C118.234 52.5469 115.156 55.6094 112.875 59.4844C110.625 63.3594 109.5 67.5938 109.5 72.1875C109.5 76.7812 110.625 81.0156 112.875 84.8906C115.156 88.7656 118.234 91.8438 122.109 94.125C125.984 96.375 130.219 97.5 134.812 97.5C139.094 97.5 143.078 96.5 146.766 94.5C150.453 92.5 153.453 89.7969 155.766 86.3906L158.531 88.3125C155.906 92.1875 152.5 95.25 148.312 97.5C144.156 99.75 139.656 100.875 134.812 100.875C129.625 100.875 124.828 99.5938 120.422 97.0312C116.016 94.4688 112.531 90.9844 109.969 86.5781C107.406 82.1719 106.125 77.375 106.125 72.1875C106.125 67 107.406 62.2031 109.969 57.7969C112.531 53.3906 116.016 49.9062 120.422 47.3438C124.828 44.7812 129.625 43.5 134.812 43.5C139.656 43.5 144.156 44.625 148.312 46.875C152.5 49.125 155.906 52.1875 158.531 56.0625ZM164.156 52.3125L161.344 54.1406C158.406 49.8281 154.594 46.4219 149.906 43.9219C145.25 41.3906 140.219 40.125 134.812 40.125C130.469 40.125 126.312 40.9688 122.344 42.6562C118.375 44.3438 114.953 46.625 112.078 49.5C109.234 52.3438 106.969 55.75 105.281 59.7188C103.594 63.6875 102.75 67.8438 102.75 72.1875C102.75 76.5312 103.594 80.6875 105.281 84.6562C106.969 88.625 109.234 92.0469 112.078 94.9219C114.953 97.7656 118.375 100.031 122.344 101.719C126.312 103.406 130.469 104.25 134.812 104.25C140.25 104.25 145.297 102.984 149.953 100.453C154.609 97.9219 158.406 94.5 161.344 90.1875L164.062 92.2031C160.812 96.9531 156.609 100.719 151.453 103.5C146.328 106.25 140.781 107.625 134.812 107.625C128.406 107.625 122.484 106.047 117.047 102.891C111.609 99.7031 107.297 95.3906 104.109 89.9531C100.953 84.5156 99.375 78.5938 99.375 72.1875C99.375 65.7812 100.953 59.8594 104.109 54.4219C107.297 48.9844 111.609 44.6875 117.047 41.5312C122.484 38.3438 128.406 36.75 134.812 36.75C140.812 36.75 146.391 38.1562 151.547 40.9688C156.703 43.75 160.906 47.5312 164.156 52.3125ZM169.688 48.4688L166.875 50.2969C163.312 45.0781 158.703 40.9531 153.047 37.9219C147.422 34.8906 141.344 33.375 134.812 33.375C129.562 33.375 124.531 34.4062 119.719 36.4688C114.938 38.5 110.812 41.25 107.344 44.7188C103.875 48.1875 101.109 52.3281 99.0469 57.1406C97.0156 61.9219 96 66.9375 96 72.1875C96 77.4375 97.0156 82.4688 99.0469 87.2812C101.109 92.0625 103.875 96.1875 107.344 99.6562C110.812 103.125 114.938 105.891 119.719 107.953C124.531 109.984 129.562 111 134.812 111C141.344 111 147.438 109.469 153.094 106.406C158.75 103.344 163.359 99.2031 166.922 93.9844L169.641 96.0469C165.766 101.672 160.766 106.141 154.641 109.453C148.516 112.734 141.906 114.375 134.812 114.375C129.094 114.375 123.625 113.25 118.406 111C113.219 108.781 108.734 105.797 104.953 102.047C101.203 98.2656 98.2031 93.7812 95.9531 88.5938C93.7344 83.375 92.625 77.9062 92.625 72.1875C92.625 66.4688 93.7344 61.0156 95.9531 55.8281C98.2031 50.6094 101.203 46.125 104.953 42.375C108.734 38.5938 113.219 35.5938 118.406 33.375C123.625 31.125 129.094 30 134.812 30C141.938 30 148.562 31.6562 154.688 34.9688C160.812 38.2812 165.812 42.7812 169.688 48.4688ZM207.562 63.75H201.891C199.484 63.75 197.75 63.1406 196.688 61.9219C195.625 60.6719 195.094 59.0312 195.094 57C195.094 52.5 198.453 50.25 205.172 50.25C211.484 50.25 216.234 51.1875 219.422 53.0625L216.703 55.125C214.516 54.125 210.672 53.625 205.172 53.625C202.484 53.625 200.672 53.9219 199.734 54.5156C198.828 55.1094 198.375 55.9375 198.375 57C198.375 58.0625 198.625 58.8906 199.125 59.4844C199.625 60.0781 200.547 60.375 201.891 60.375H207.703C211.922 60.375 215.719 61.0938 219.094 62.5312C222.5 63.9688 225.297 65.9375 227.484 68.4375C229.672 70.9062 231.344 73.7656 232.5 77.0156C233.656 80.2344 234.234 83.6875 234.234 87.375C234.234 90.375 233.812 93.2188 232.969 95.9062C232.125 98.5938 230.844 101.062 229.125 103.312C227.438 105.562 225.391 107.516 222.984 109.172C220.609 110.797 217.766 112.062 214.453 112.969C211.172 113.906 207.609 114.375 203.766 114.375C197.734 114.375 192.078 113.453 186.797 111.609C181.547 109.797 177.172 107.25 173.672 103.969L176.391 101.953C179.578 104.828 183.562 107.062 188.344 108.656C193.156 110.219 198.297 111 203.766 111C208.047 111 211.906 110.391 215.344 109.172C218.812 107.922 221.656 106.219 223.875 104.062C226.125 101.906 227.844 99.4062 229.031 96.5625C230.25 93.7188 230.859 90.6562 230.859 87.375C230.859 83.0312 229.984 79.1094 228.234 75.6094C226.484 72.0781 223.812 69.2188 220.219 67.0312C216.656 64.8438 212.438 63.75 207.562 63.75ZM201.891 67.125H207.234C213.578 67.125 218.531 69.0625 222.094 72.9375C225.688 76.8125 227.484 81.625 227.484 87.375C227.484 93.2188 225.406 98.0625 221.25 101.906C217.094 105.719 211.266 107.625 203.766 107.625C198.766 107.625 194.094 106.938 189.75 105.562C185.406 104.188 181.797 102.25 178.922 99.75L181.547 97.6406C184.109 99.7344 187.328 101.359 191.203 102.516C195.109 103.672 199.297 104.25 203.766 104.25C210.359 104.25 215.391 102.672 218.859 99.5156C222.359 96.3594 224.109 92.3125 224.109 87.375C224.109 82.5 222.641 78.4688 219.703 75.2812C216.797 72.0938 212.625 70.5 207.188 70.5H201.891C197.328 70.5 193.906 69.25 191.625 66.75C189.344 64.25 188.203 61 188.203 57C188.203 53 189.609 49.75 192.422 47.25C195.266 44.75 199.516 43.5 205.172 43.5C209.141 43.5 212.828 43.9688 216.234 44.9062C219.641 45.8125 222.453 47.125 224.672 48.8438L222 50.9062C218.094 48.2188 212.484 46.875 205.172 46.875C200.453 46.875 197 47.8125 194.812 49.6875C192.656 51.5312 191.578 53.9688 191.578 57C191.578 60.0625 192.375 62.5156 193.969 64.3594C195.594 66.2031 198.234 67.125 201.891 67.125ZM201.891 73.875H207.047C211.609 73.875 215.031 75.1406 217.312 77.6719C219.594 80.2031 220.734 83.4375 220.734 87.375C220.734 91.375 219.312 94.625 216.469 97.125C213.656 99.625 209.422 100.875 203.766 100.875C199.797 100.875 196.094 100.422 192.656 99.5156C189.25 98.5781 186.438 97.25 184.219 95.5312L186.891 93.4688C190.797 96.1562 196.422 97.5 203.766 97.5C208.484 97.5 211.922 96.5781 214.078 94.7344C216.266 92.8594 217.359 90.4062 217.359 87.375C217.359 84.3438 216.547 81.9062 214.922 80.0625C213.297 78.1875 210.656 77.25 207 77.25H201.891C195.484 77.25 190.469 75.3438 186.844 71.5312C183.25 67.6875 181.453 62.8438 181.453 57C181.453 51.1562 183.531 46.3281 187.688 42.5156C191.844 38.6719 197.672 36.75 205.172 36.75C210.172 36.75 214.828 37.4375 219.141 38.8125C223.484 40.1875 227.094 42.125 229.969 44.625L227.344 46.7344C224.781 44.6406 221.562 43.0156 217.688 41.8594C213.812 40.7031 209.641 40.125 205.172 40.125C198.578 40.125 193.531 41.7031 190.031 44.8594C186.562 48.0156 184.828 52.0625 184.828 57C184.828 61.9062 186.297 65.9531 189.234 69.1406C192.172 72.2969 196.391 73.875 201.891 73.875ZM201.891 80.625H207.047C209.453 80.625 211.188 81.25 212.25 82.5C213.312 83.75 213.844 85.375 213.844 87.375C213.844 91.875 210.484 94.125 203.766 94.125C197.422 94.125 192.656 93.1875 189.469 91.3125L192.188 89.25C194.375 90.25 198.234 90.75 203.766 90.75C206.453 90.75 208.25 90.4531 209.156 89.8594C210.094 89.2656 210.562 88.4375 210.562 87.375C210.562 86.3438 210.297 85.5312 209.766 84.9375C209.266 84.3125 208.328 84 206.953 84H201.891C197.578 84 193.672 83.2969 190.172 81.8906C186.703 80.4844 183.844 78.5469 181.594 76.0781C179.375 73.6094 177.672 70.75 176.484 67.5C175.297 64.25 174.703 60.75 174.703 57C174.703 54 175.125 51.1562 175.969 48.4688C176.812 45.7812 178.078 43.3125 179.766 41.0625C181.484 38.8125 183.531 36.875 185.906 35.25C188.312 33.5938 191.156 32.3125 194.438 31.4062C197.75 30.4688 201.328 30 205.172 30C211.203 30 216.844 30.9219 222.094 32.7656C227.344 34.5781 231.719 37.125 235.219 40.4062L232.5 42.4219C229.312 39.5469 225.328 37.3281 220.547 35.7656C215.766 34.1719 210.641 33.375 205.172 33.375C200.891 33.375 197.016 34 193.547 35.25C190.109 36.4688 187.266 38.1562 185.016 40.3125C182.797 42.4688 181.078 44.9688 179.859 47.8125C178.672 50.6562 178.078 53.7188 178.078 57C178.078 61.4062 178.969 65.375 180.75 68.9062C182.531 72.4375 185.25 75.2812 188.906 77.4375C192.562 79.5625 196.891 80.625 201.891 80.625Z" fill="white"/>
</svg>
